<svg width="22" height="22" viewBox="0 0 22 22" fill="none" xmlns="http://www.w3.org/2000/svg">
<path d="M20 9V6C20 4.93913 19.5786 3.92172 18.8284 3.17157C18.0783 2.42143 17.0609 2 16 2H5C3.93913 2 2.92172 2.42143 2.17157 3.17157C1.42143 3.92172 1 4.93913 1 6V15C1 16.0609 1.42143 17.0783 2.17157 17.8284C2.92172 18.5786 3.93913 19 5 19H9M7 1V3M14 1V3M1 7H20M17.5 14.643L16 16.143" stroke="#092737" stroke-width="2" stroke-linecap="round" stroke-linejoin="round"/>
<path d="M16 21C18.7614 21 21 18.7614 21 16C21 13.2386 18.7614 11 16 11C13.2386 11 11 13.2386 11 16C11 18.7614 13.2386 21 16 21Z" stroke="#092737" stroke-width="2" stroke-linecap="round" stroke-linejoin="round"/>
</svg>
