<svg width="32" height="32" viewBox="0 0 32 32" fill="none" xmlns="http://www.w3.org/2000/svg">
<path d="M28.6 13.2V9C28.6 7.51479 28.01 6.09041 26.9598 5.0402C25.9096 3.99 24.4852 3.4 23 3.4H7.6C6.11479 3.4 4.69041 3.99 3.6402 5.0402C2.59 6.09041 2 7.51479 2 9V21.6C2 23.0852 2.59 24.5096 3.6402 25.5598C4.69041 26.61 6.11479 27.2 7.6 27.2H12.5M10.4 2V4.8M20.2 2V4.8M2 10.4H28.6M25.1 21.1002L23 23.2002" stroke="#092737" stroke-width="2.5" stroke-linecap="round" stroke-linejoin="round"/>
<path d="M23 30C26.866 30 30 26.866 30 23C30 19.134 26.866 16 23 16C19.134 16 16 19.134 16 23C16 26.866 19.134 30 23 30Z" stroke="#092737" stroke-width="2.5" stroke-linecap="round" stroke-linejoin="round"/>
</svg>
