<svg width="18" height="11" viewBox="0 0 18 11" fill="none" xmlns="http://www.w3.org/2000/svg">
<path d="M8.03991 9.15414L8.04098 9.15503C8.3063 9.37489 8.63909 9.49658 8.98329 9.49996C9.31197 9.51872 9.63789 9.42881 9.91063 9.24385L9.92758 9.23236L9.94353 9.21951L15.939 4.39315C16.1007 4.26853 16.2352 4.11222 16.3344 3.93376C16.4347 3.75322 16.4967 3.55391 16.5164 3.34832C16.5361 3.14273 16.5132 2.93527 16.449 2.73896C16.3861 2.54669 16.285 2.36915 16.1518 2.21702C16.0294 2.06733 15.8793 1.94267 15.7095 1.84994C15.5361 1.75517 15.3456 1.69563 15.1491 1.67472C14.9525 1.65381 14.7538 1.67195 14.5643 1.7281C14.3751 1.78415 14.1989 1.87695 14.0456 2.00121C14.0454 2.00144 14.0451 2.00167 14.0448 2.0019L9.00577 6.0632L3.96066 1.84639L3.96066 1.84639L3.9596 1.84551C3.6534 1.59101 3.25865 1.46857 2.86217 1.50512C2.4657 1.54168 2.09998 1.73423 1.84548 2.04043C1.59098 2.34663 1.46854 2.74139 1.50509 3.13786C1.54164 3.53424 1.73411 3.89988 2.04019 4.15438C2.04026 4.15443 2.04033 4.15449 2.0404 4.15455L8.03991 9.15414Z" fill="black" stroke="black"/>
</svg>
