<svg width="16" height="9" viewBox="0 0 16 9" fill="none" xmlns="http://www.w3.org/2000/svg">
<path d="M8.75803 1.11595L8.75771 1.11569C8.55217 0.945374 8.29384 0.8519 8.02702 0.851191C7.77224 0.834817 7.5192 0.903693 7.30781 1.04704L7.30753 1.04663L7.29794 1.05434L1.29939 5.88318C1.17424 5.97905 1.07013 6.09965 0.993535 6.23747C0.916618 6.37589 0.869117 6.52869 0.854003 6.68631C0.838888 6.84393 0.856486 7.00298 0.905698 7.15348C0.954514 7.30278 1.03339 7.44048 1.13745 7.5581C1.23193 7.67491 1.34839 7.77209 1.48026 7.84413C1.61324 7.91678 1.75927 7.96243 1.90995 7.97846C2.06064 7.99449 2.213 7.98058 2.35829 7.93754C2.50351 7.89451 2.6388 7.82322 2.75639 7.72776C2.75645 7.72772 2.75651 7.72767 2.75656 7.72763L8.02027 3.48524L13.2858 7.88628L13.2861 7.88655C13.5209 8.08171 13.8237 8.17561 14.1277 8.14758C14.4317 8.11954 14.7122 7.97188 14.9074 7.73707C15.1025 7.50226 15.1964 7.19953 15.1684 6.89549C15.1404 6.59149 14.9927 6.31107 14.758 6.11591C14.7579 6.11588 14.7579 6.11586 14.7579 6.11583L8.75803 1.11595Z" fill="black" stroke="black" stroke-width="0.3"/>
</svg>
