<svg width="16" height="9" viewBox="0 0 16 9" fill="none" xmlns="http://www.w3.org/2000/svg">
<path d="M7.26397 7.88527L7.26429 7.88553C7.46983 8.05585 7.72816 8.14932 7.99498 8.15003C8.24976 8.1664 8.50281 8.09753 8.71419 7.95418L8.71447 7.95459L8.72406 7.94688L14.7226 3.11804C14.8478 3.02216 14.9519 2.90157 15.0285 2.76374C15.1054 2.62533 15.1529 2.47253 15.168 2.31491C15.1831 2.15729 15.1655 1.99824 15.1163 1.84774C15.0675 1.69844 14.9886 1.56074 14.8846 1.44312C14.7901 1.32631 14.6736 1.22913 14.5417 1.15709C14.4088 1.08444 14.2627 1.03879 14.1121 1.02276C13.9614 1.00673 13.809 1.02064 13.6637 1.06368C13.5185 1.10671 13.3832 1.178 13.2656 1.27345C13.2656 1.2735 13.2655 1.27355 13.2654 1.27359L8.00173 5.51598L2.7362 1.11494L2.73588 1.11468C2.50107 0.919508 2.19835 0.825612 1.89431 0.853644C1.59027 0.881676 1.30981 1.02934 1.11465 1.26415C0.919478 1.49896 0.825582 1.80169 0.853614 2.10573C0.881642 2.40973 1.02927 2.69015 1.26403 2.88531C1.26406 2.88534 1.26409 2.88536 1.26412 2.88539L7.26397 7.88527Z" fill="black" stroke="black" stroke-width="0.3"/>
</svg>
