<svg width="18" height="11" viewBox="0 0 18 11" fill="none" xmlns="http://www.w3.org/2000/svg">
<path d="M9.9821 1.84708L9.98103 1.84619C9.7157 1.62633 9.38292 1.50464 9.03871 1.50126C8.71003 1.4825 8.38411 1.57241 8.11137 1.75737L8.09442 1.76886L8.07847 1.78171L2.08298 6.60807C1.92132 6.73269 1.78677 6.889 1.6876 7.06746C1.58727 7.248 1.52532 7.44731 1.5056 7.6529C1.48589 7.85849 1.50884 8.06595 1.57303 8.26226C1.6359 8.45453 1.737 8.63206 1.8702 8.7842C1.99255 8.93389 2.14272 9.05855 2.31246 9.15128C2.48591 9.24604 2.67639 9.30559 2.87293 9.3265C3.06947 9.34741 3.26821 9.32927 3.45772 9.27312C3.64688 9.21707 3.82312 9.12426 3.97635 9.00001C3.97664 8.99978 3.97692 8.99955 3.9772 8.99932L9.01623 4.93802L14.0613 9.15483L14.0613 9.15483L14.0624 9.15571C14.3686 9.41021 14.7634 9.53265 15.1598 9.4961C15.5563 9.45954 15.922 9.26699 16.1765 8.96079C16.431 8.65459 16.5535 8.25984 16.5169 7.86336C16.4804 7.46698 16.2879 7.10134 15.9818 6.84685C15.9817 6.84679 15.9817 6.84673 15.9816 6.84667L9.9821 1.84708Z" fill="black" stroke="black"/>
</svg>
