<svg width="32" height="28" viewBox="0 0 32 28" fill="none" xmlns="http://www.w3.org/2000/svg">
<path d="M2 12C1.44792 12 0.976562 12.1953 0.585938 12.5859C0.195312 12.9766 0 13.4479 0 14C0 14.5521 0.195312 15.0234 0.585938 15.4141C0.976562 15.8047 1.44792 16 2 16H2.23438L4.03125 26.3438C4.11458 26.8229 4.34375 27.2188 4.71875 27.5312C5.09375 27.8438 5.52083 28 6 28H26C26.4792 28 26.9062 27.8438 27.2812 27.5312C27.6562 27.2188 27.8854 26.8229 27.9688 26.3438L29.7656 16H30C30.5521 16 31.0234 15.8047 31.4141 15.4141C31.8047 15.0234 32 14.5521 32 14C32 13.4479 31.8047 12.9766 31.4141 12.5859C31.0234 12.1953 30.5521 12 30 12H2ZM24.4219 24.5C24.151 24.4792 23.9245 24.362 23.7422 24.1484C23.5599 23.9349 23.4792 23.6927 23.5 23.4219L24 16.9219C24.0208 16.651 24.138 16.4245 24.3516 16.2422C24.5651 16.0599 24.8073 15.9792 25.0781 16C25.349 16.0208 25.5755 16.138 25.7578 16.3516C25.9401 16.5651 26.0208 16.8073 26 17.0781L25.5 23.5781C25.4792 23.8385 25.3724 24.0573 25.1797 24.2344C24.987 24.4115 24.7604 24.5 24.5 24.5H24.4219ZM18 23.5V17C18 16.7292 18.099 16.4948 18.2969 16.2969C18.4948 16.099 18.7292 16 19 16C19.2708 16 19.5052 16.099 19.7031 16.2969C19.901 16.4948 20 16.7292 20 17V23.5C20 23.7708 19.901 24.0052 19.7031 24.2031C19.5052 24.401 19.2708 24.5 19 24.5C18.7292 24.5 18.4948 24.401 18.2969 24.2031C18.099 24.0052 18 23.7708 18 23.5ZM12 23.5V17C12 16.7292 12.099 16.4948 12.2969 16.2969C12.4948 16.099 12.7292 16 13 16C13.2708 16 13.5052 16.099 13.7031 16.2969C13.901 16.4948 14 16.7292 14 17V23.5C14 23.7708 13.901 24.0052 13.7031 24.2031C13.5052 24.401 13.2708 24.5 13 24.5C12.7292 24.5 12.4948 24.401 12.2969 24.2031C12.099 24.0052 12 23.7708 12 23.5ZM6.5 23.5781L6 17.0781C5.97917 16.8073 6.0599 16.5651 6.24219 16.3516C6.42448 16.138 6.65104 16.0208 6.92188 16C7.19271 15.9792 7.4349 16.0599 7.64844 16.2422C7.86198 16.4245 7.97917 16.651 8 16.9219L8.5 23.4219C8.52083 23.6927 8.4401 23.9349 8.25781 24.1484C8.07552 24.362 7.84896 24.4792 7.57812 24.5H7.5C7.23958 24.5 7.01302 24.4115 6.82031 24.2344C6.6276 24.0573 6.52083 23.8385 6.5 23.5781ZM24.5625 4.5625L26.0156 11H28.0781L26.5 4.10938C26.3021 3.19271 25.8385 2.44531 25.1094 1.86719C24.3802 1.28906 23.5469 1 22.6094 1H20C20 0.729167 19.901 0.494792 19.7031 0.296875C19.5052 0.0989583 19.2708 0 19 0H13C12.7292 0 12.4948 0.0989583 12.2969 0.296875C12.099 0.494792 12 0.729167 12 1H9.39062C8.45312 1 7.61979 1.28906 6.89062 1.86719C6.16146 2.44531 5.69792 3.19271 5.5 4.10938L3.92188 11H5.98438L7.4375 4.5625C7.55208 4.10417 7.78906 3.72917 8.14844 3.4375C8.50781 3.14583 8.92188 3 9.39062 3H12C12 3.27083 12.099 3.50521 12.2969 3.70312C12.4948 3.90104 12.7292 4 13 4H19C19.2708 4 19.5052 3.90104 19.7031 3.70312C19.901 3.50521 20 3.27083 20 3H22.6094C23.0781 3 23.4922 3.14583 23.8516 3.4375C24.2109 3.72917 24.4479 4.10417 24.5625 4.5625Z" fill="black"/>
</svg>
