<svg width="28" height="24" viewBox="0 0 28 24" fill="none" xmlns="http://www.w3.org/2000/svg">
<path d="M1.75 10.2857C1.26693 10.2857 0.854492 10.4531 0.512695 10.7879C0.170898 11.1228 0 11.5268 0 12C0 12.4732 0.170898 12.8772 0.512695 13.2121C0.854492 13.5469 1.26693 13.7143 1.75 13.7143H1.95508L3.52734 22.5804C3.60026 22.9911 3.80078 23.3304 4.12891 23.5982C4.45703 23.8661 4.83073 24 5.25 24H22.75C23.1693 24 23.543 23.8661 23.8711 23.5982C24.1992 23.3304 24.3997 22.9911 24.4727 22.5804L26.0449 13.7143H26.25C26.7331 13.7143 27.1455 13.5469 27.4873 13.2121C27.8291 12.8772 28 12.4732 28 12C28 11.5268 27.8291 11.1228 27.4873 10.7879C27.1455 10.4531 26.7331 10.2857 26.25 10.2857H1.75ZM21.3691 21C21.1322 20.9821 20.9339 20.8817 20.7744 20.6987C20.6149 20.5156 20.5443 20.308 20.5625 20.0759L21 14.5045C21.0182 14.2723 21.1208 14.0781 21.3076 13.9219C21.4945 13.7656 21.7064 13.6964 21.9434 13.7143C22.1803 13.7321 22.3786 13.8326 22.5381 14.0156C22.6976 14.1987 22.7682 14.4063 22.75 14.6384L22.3125 20.2098C22.2943 20.433 22.2008 20.6205 22.0322 20.7723C21.8636 20.9241 21.6654 21 21.4375 21H21.3691ZM15.75 20.1429V14.5714C15.75 14.3393 15.8366 14.1384 16.0098 13.9688C16.1829 13.7991 16.388 13.7143 16.625 13.7143C16.862 13.7143 17.0671 13.7991 17.2402 13.9688C17.4134 14.1384 17.5 14.3393 17.5 14.5714V20.1429C17.5 20.375 17.4134 20.5759 17.2402 20.7455C17.0671 20.9152 16.862 21 16.625 21C16.388 21 16.1829 20.9152 16.0098 20.7455C15.8366 20.5759 15.75 20.375 15.75 20.1429ZM10.5 20.1429V14.5714C10.5 14.3393 10.5866 14.1384 10.7598 13.9688C10.9329 13.7991 11.138 13.7143 11.375 13.7143C11.612 13.7143 11.8171 13.7991 11.9902 13.9688C12.1634 14.1384 12.25 14.3393 12.25 14.5714V20.1429C12.25 20.375 12.1634 20.5759 11.9902 20.7455C11.8171 20.9152 11.612 21 11.375 21C11.138 21 10.9329 20.9152 10.7598 20.7455C10.5866 20.5759 10.5 20.375 10.5 20.1429ZM5.6875 20.2098L5.25 14.6384C5.23177 14.4063 5.30241 14.1987 5.46191 14.0156C5.62142 13.8326 5.81966 13.7321 6.05664 13.7143C6.29362 13.6964 6.50553 13.7656 6.69238 13.9219C6.87923 14.0781 6.98177 14.2723 7 14.5045L7.4375 20.0759C7.45573 20.308 7.38509 20.5156 7.22559 20.6987C7.06608 20.8817 6.86784 20.9821 6.63086 21H6.5625C6.33464 21 6.13639 20.9241 5.96777 20.7723C5.79915 20.6205 5.70573 20.433 5.6875 20.2098ZM21.4922 3.91071L22.7637 9.42857H24.5684L23.1875 3.52232C23.0143 2.73661 22.6087 2.09598 21.9707 1.60045C21.3327 1.10491 20.6035 0.857143 19.7832 0.857143H17.5C17.5 0.625 17.4134 0.424107 17.2402 0.254464C17.0671 0.0848214 16.862 0 16.625 0H11.375C11.138 0 10.9329 0.0848214 10.7598 0.254464C10.5866 0.424107 10.5 0.625 10.5 0.857143H8.2168C7.39648 0.857143 6.66732 1.10491 6.0293 1.60045C5.39128 2.09598 4.98568 2.73661 4.8125 3.52232L3.43164 9.42857H5.23633L6.50781 3.91071C6.60807 3.51786 6.81543 3.19643 7.12988 2.94643C7.44434 2.69643 7.80664 2.57143 8.2168 2.57143H10.5C10.5 2.80357 10.5866 3.00446 10.7598 3.17411C10.9329 3.34375 11.138 3.42857 11.375 3.42857H16.625C16.862 3.42857 17.0671 3.34375 17.2402 3.17411C17.4134 3.00446 17.5 2.80357 17.5 2.57143H19.7832C20.1934 2.57143 20.5557 2.69643 20.8701 2.94643C21.1846 3.19643 21.3919 3.51786 21.4922 3.91071Z" fill="black"/>
</svg>
