<svg width="20" height="20" viewBox="0 0 20 20" fill="none" xmlns="http://www.w3.org/2000/svg">
<path fill-rule="evenodd" clip-rule="evenodd" d="M16.9366 3.10242C16.0356 2.19554 14.9637 1.47646 13.7828 0.986829C12.602 0.497197 11.3357 0.246752 10.0574 0.250001C4.69708 0.250001 0.333417 4.61258 0.33125 9.97508C0.33125 11.6889 0.778666 13.3616 1.62908 14.8371L0.25 19.8757L5.40558 18.5226C6.83168 19.2989 8.42938 19.706 10.0531 19.7067H10.0574C15.4167 19.7067 19.7803 15.3441 19.7825 9.98158C19.7862 8.70378 19.5366 7.43791 19.0481 6.25715C18.5596 5.07639 17.8419 4.00415 16.9366 3.10242ZM10.0574 18.0654H10.0542C8.60631 18.0656 7.1851 17.676 5.93967 16.9377L5.645 16.7622L2.58567 17.5649L3.40142 14.5825L3.20967 14.277C2.40019 12.9883 1.97167 11.4969 1.97358 9.97508C1.97575 5.51825 5.60167 1.89233 10.0607 1.89233C11.1226 1.88997 12.1745 2.09826 13.1554 2.50512C14.1363 2.91199 15.0267 3.50936 15.7752 4.26267C16.5278 5.01238 17.1242 5.9038 17.5301 6.88542C17.936 7.86703 18.1434 8.91936 18.1402 9.98158C18.138 14.4384 14.5121 18.0654 10.0574 18.0654ZM14.4915 12.0107C14.2477 11.8883 13.0539 11.3011 12.8307 11.2198C12.6087 11.1386 12.4472 11.0985 12.2847 11.3412C12.1222 11.5838 11.6564 12.1309 11.5145 12.2934C11.3726 12.4559 11.2307 12.4754 10.988 12.3541C10.7453 12.2328 9.96208 11.976 9.03366 11.1483C8.31108 10.5038 7.82358 9.70858 7.68166 9.46483C7.53975 9.22108 7.6665 9.09 7.78891 8.96867C7.89833 8.86033 8.03158 8.68483 8.15292 8.54292C8.27425 8.401 8.31433 8.30025 8.39558 8.13775C8.47683 7.97525 8.43675 7.83333 8.375 7.712C8.31433 7.58958 7.82791 6.39358 7.62533 5.90717C7.42925 5.43592 7.22883 5.49875 7.07933 5.49225C6.9245 5.48592 6.76954 5.48303 6.61458 5.48358C6.49136 5.48672 6.37011 5.51529 6.25845 5.56749C6.14678 5.61968 6.0471 5.69439 5.96567 5.78692C5.7425 6.03067 5.11525 6.61783 5.11525 7.81383C5.11525 9.00983 5.98625 10.1658 6.10758 10.3283C6.22892 10.4908 7.82142 12.9445 10.2589 13.9975C10.8396 14.2478 11.2924 14.3973 11.6445 14.5099C12.2262 14.6952 12.756 14.6681 13.1752 14.6063C13.6422 14.537 14.6128 14.0192 14.8154 13.4515C15.018 12.8838 15.018 12.3974 14.9573 12.2956C14.8967 12.1938 14.7331 12.132 14.4915 12.0107Z" fill="black"/>
</svg>
