<svg viewBox="0 0 374 113" fill="none" xmlns="http://www.w3.org/2000/svg">
<path d="M155.439 74.4002C155.18 74.4866 154.834 74.573 154.403 74.6593C153.971 74.7889 153.496 74.8537 152.977 74.8537C151.077 74.8537 150.127 74.0547 150.127 72.4568V37.9929C150.127 37.3018 150.3 36.7836 150.645 36.4381C150.991 36.0494 151.531 35.7471 152.265 35.5311C153.517 35.1425 155.05 34.8617 156.864 34.689C158.721 34.5162 160.514 34.4299 162.241 34.4299C167.683 34.4299 171.721 35.5311 174.355 37.7337C177.033 39.8931 178.372 42.9811 178.372 46.9975C178.372 49.9775 177.594 52.4824 176.04 54.5122C174.528 56.542 172.218 57.9888 169.108 58.8526C170.188 60.2346 171.267 61.6166 172.347 62.9986C173.427 64.3806 174.442 65.6979 175.392 66.9503C176.385 68.1596 177.249 69.2609 177.983 70.2542C178.76 71.2475 179.365 72.0249 179.797 72.5863C179.624 73.3205 179.236 73.9036 178.631 74.3354C178.069 74.7673 177.486 74.9833 176.882 74.9833C176.148 74.9833 175.543 74.8105 175.068 74.465C174.593 74.1195 174.096 73.5796 173.578 72.8455L164.12 59.63H155.439V74.4002ZM162.824 55.2248C166.02 55.2248 168.525 54.5338 170.339 53.1518C172.153 51.7698 173.06 49.7184 173.06 46.9975C173.06 44.2767 172.11 42.2469 170.209 40.908C168.309 39.526 165.588 38.835 162.047 38.835C160.881 38.835 159.693 38.8998 158.484 39.0294C157.318 39.1157 156.281 39.2453 155.374 39.4181V55.2248H162.824Z" fill="#1A4178"/>
<path d="M223.201 54.8361C223.201 58.2048 222.726 61.1847 221.776 63.776C220.826 66.3241 219.509 68.4619 217.824 70.1894C216.14 71.8737 214.153 73.1694 211.864 74.0763C209.576 74.9401 207.092 75.3719 204.415 75.3719C201.737 75.3719 199.254 74.9401 196.965 74.0763C194.676 73.1694 192.689 71.8737 191.005 70.1894C189.32 68.4619 188.003 66.3241 187.053 63.776C186.103 61.1847 185.628 58.2048 185.628 54.8361C185.628 51.4675 186.103 48.5091 187.053 45.961C188.046 43.4129 189.385 41.2751 191.07 39.5476C192.754 37.8201 194.741 36.5245 197.029 35.6607C199.318 34.7538 201.78 34.3003 204.415 34.3003C207.049 34.3003 209.511 34.7538 211.8 35.6607C214.089 36.5245 216.075 37.8201 217.76 39.5476C219.444 41.2751 220.761 43.4129 221.711 45.961C222.705 48.5091 223.201 51.4675 223.201 54.8361ZM217.824 54.8361C217.824 49.6536 216.594 45.6803 214.132 42.9163C211.713 40.1522 208.474 38.7702 204.415 38.7702C202.385 38.7702 200.549 39.1373 198.908 39.8715C197.267 40.5625 195.863 41.599 194.697 42.9811C193.531 44.3199 192.624 45.9826 191.976 47.9692C191.372 49.9559 191.07 52.2448 191.07 54.8361C191.07 60.0187 192.279 63.9919 194.697 66.756C197.116 69.52 200.355 70.902 204.415 70.902C208.517 70.902 211.778 69.52 214.197 66.756C216.615 63.9919 217.824 60.0187 217.824 54.8361Z" fill="#1A4178"/>
<path d="M245.142 58.2048L233.222 74.8537C232.79 74.9401 232.358 74.9833 231.927 74.9833C231.063 74.9833 230.372 74.7889 229.854 74.4002C229.335 73.9683 229.076 73.3853 229.076 72.6511C229.076 72.0897 229.206 71.5714 229.465 71.0963C229.767 70.6213 230.134 70.0814 230.566 69.4768L241.968 54.577L229.335 37.345C229.551 36.6108 229.897 36.0062 230.372 35.5311C230.89 35.0129 231.581 34.7538 232.445 34.7538C233.136 34.7538 233.719 34.9697 234.194 35.4016C234.669 35.7903 235.166 36.3517 235.684 37.0859L245.272 50.8196L256.738 34.9481C256.954 34.9049 257.17 34.8833 257.386 34.8833C257.602 34.8401 257.839 34.8185 258.098 34.8185C259.005 34.8185 259.675 35.0345 260.107 35.4664C260.582 35.8982 260.819 36.4381 260.819 37.0859C260.819 37.561 260.69 38.036 260.431 38.5111C260.215 38.943 259.934 39.3965 259.588 39.8715C257.775 42.29 255.939 44.7086 254.082 47.1271C252.225 49.5456 250.325 51.9857 248.381 54.4474L261.402 72.4568C261.186 73.191 260.841 73.7956 260.366 74.2707C259.891 74.7457 259.243 74.9833 258.422 74.9833C257.731 74.9833 257.148 74.8105 256.673 74.465C256.241 74.1195 255.766 73.5581 255.248 72.7807L245.142 58.2048Z" fill="#1A4178"/>
<path d="M284.316 39.6124V74.4002C284.1 74.4866 283.754 74.573 283.279 74.6593C282.847 74.7889 282.394 74.8537 281.919 74.8537C280.019 74.8537 279.068 74.0547 279.068 72.4568V39.6124H266.954C266.825 39.3965 266.695 39.1157 266.566 38.7702C266.436 38.3815 266.371 37.9497 266.371 37.4746C266.371 36.7404 266.544 36.179 266.89 35.7903C267.235 35.3584 267.732 35.1425 268.38 35.1425H296.43C296.56 35.3584 296.689 35.6607 296.819 36.0494C296.948 36.3949 297.013 36.7836 297.013 37.2155C297.013 37.9497 296.84 38.5327 296.495 38.9646C296.149 39.3965 295.653 39.6124 295.005 39.6124H284.316Z" fill="#1A4178"/>
<path d="M323.794 64.0351H306.432C306.13 64.8989 305.806 65.849 305.46 66.8855C305.115 67.8789 304.769 68.8722 304.424 69.8655C304.122 70.8156 303.819 71.7226 303.517 72.5863C303.215 73.4069 302.977 74.0979 302.804 74.6593C302.2 74.9185 301.487 75.048 300.667 75.048C299.976 75.048 299.349 74.8753 298.788 74.5298C298.27 74.1411 298.011 73.5365 298.011 72.7159C298.011 72.3272 298.075 71.9385 298.205 71.5498C298.334 71.1179 298.486 70.6645 298.658 70.1894C299.306 68.3755 300.127 66.0434 301.12 63.193C302.157 60.3426 303.258 57.3194 304.424 54.1235C305.633 50.8844 306.843 47.6453 308.052 44.4063C309.304 41.124 310.449 38.1872 311.485 35.5959C311.831 35.4232 312.349 35.2504 313.04 35.0777C313.731 34.9049 314.444 34.8185 315.178 34.8185C316.042 34.8185 316.862 34.9481 317.639 35.2072C318.46 35.4664 318.978 35.8982 319.194 36.5029C320.231 39.0078 321.332 41.8798 322.498 45.1189C323.707 48.3148 324.917 51.597 326.126 54.9657C327.335 58.3343 328.48 61.6598 329.559 64.9421C330.682 68.1812 331.676 71.1179 332.539 73.7524C332.194 74.1411 331.783 74.4434 331.308 74.6593C330.833 74.9185 330.294 75.048 329.689 75.048C328.868 75.048 328.242 74.8753 327.81 74.5298C327.378 74.1411 327.011 73.5149 326.709 72.6511L323.794 64.0351ZM315.113 39.2237C314.638 40.5193 314.098 42.0093 313.493 43.6937C312.889 45.3348 312.263 47.0623 311.615 48.8762C310.967 50.6901 310.319 52.5256 309.671 54.3826C309.023 56.2397 308.419 58.0104 307.857 59.6948H322.433C321.786 57.7513 321.116 55.8078 320.425 53.8644C319.734 51.8778 319.065 49.9775 318.417 48.1636C317.812 46.3497 317.229 44.687 316.668 43.1754C316.149 41.6206 315.718 40.3034 315.372 39.2237H315.113Z" fill="#1A4178"/>
<path d="M345.482 74.4002C345.223 74.4866 344.878 74.573 344.446 74.6593C344.014 74.7889 343.539 74.8537 343.021 74.8537C341.12 74.8537 340.17 74.0547 340.17 72.4568V37.9929C340.17 37.3018 340.343 36.7836 340.689 36.4381C341.034 36.0494 341.574 35.7471 342.308 35.5311C343.561 35.1425 345.094 34.8617 346.908 34.689C348.765 34.5162 350.557 34.4299 352.285 34.4299C357.726 34.4299 361.764 35.5311 364.399 37.7337C367.076 39.8931 368.415 42.9811 368.415 46.9975C368.415 49.9775 367.638 52.4824 366.083 54.5122C364.572 56.542 362.261 57.9888 359.151 58.8526C360.231 60.2346 361.311 61.6166 362.391 62.9986C363.47 64.3806 364.485 65.6979 365.435 66.9503C366.429 68.1596 367.292 69.2609 368.027 70.2542C368.804 71.2475 369.409 72.0249 369.84 72.5863C369.668 73.3205 369.279 73.9036 368.674 74.3354C368.113 74.7673 367.53 74.9833 366.925 74.9833C366.191 74.9833 365.586 74.8105 365.111 74.465C364.636 74.1195 364.14 73.5796 363.621 72.8455L354.163 59.63H345.482V74.4002ZM352.868 55.2248C356.064 55.2248 358.568 54.5338 360.382 53.1518C362.196 51.7698 363.103 49.7184 363.103 46.9975C363.103 44.2767 362.153 42.2469 360.253 40.908C358.352 39.526 355.632 38.835 352.09 38.835C350.924 38.835 349.736 38.8998 348.527 39.0294C347.361 39.1157 346.325 39.2453 345.418 39.4181V55.2248H352.868Z" fill="#1A4178"/>
<path d="M9.09042 77.2637L34.9869 46.2138L59.0694 74.0735C60.9596 72.7802 63.4004 72.3623 65.7151 73.1151L93.0044 25.8522C90.9118 23.8027 90.106 20.6291 91.2169 17.7241C91.3827 17.2896 91.5883 16.8818 91.8238 16.4971C82.4986 8.11031 70.1655 3 56.6386 3C27.5685 3 4 26.5685 4 55.6386C4 63.4848 5.72776 70.9198 8.80522 77.6086L9.09042 77.2637Z" fill="#69E8A3"/>
<path d="M101.084 27.4639C100.202 27.8121 99.2605 28.0177 98.2955 28.0177C97.6952 28.0177 97.0917 27.9381 96.4914 27.7922L69.0562 75.3105C70.8536 77.3599 71.4904 80.308 70.4557 83.0273C69.3016 86.0518 66.4132 87.9122 63.3556 87.9122C62.4569 87.9122 61.5483 87.753 60.6595 87.4147C56.7497 85.9224 54.7799 81.5284 56.2722 77.6186C56.3319 77.4627 56.4015 77.3168 56.4711 77.1709L35.0914 52.3787L10.7734 81.4787C19.8069 97.4729 36.9518 108.28 56.6303 108.28C85.7004 108.28 109.269 84.712 109.269 55.6419C109.269 45.272 106.261 35.6119 101.084 27.4639ZM44.1115 79.4823L36.6964 72.0672L35.2141 79.4823L30.767 72.0672L14.4578 83.9294L35.2174 58.7227L50.0443 76.5176L41.1468 72.0705L44.1115 79.4823Z" fill="#69E8A3"/>
<path d="M102.256 22.2859C103.047 20.2118 101.974 17.877 99.8609 17.0711C97.7474 16.2651 95.3929 17.2933 94.602 19.3674C93.8111 21.4416 94.8833 23.7764 96.9968 24.5823C99.1103 25.3882 101.465 24.3601 102.256 22.2859Z" fill="#69E8A3"/>
<path d="M67.1024 81.7202C67.862 79.7282 66.8324 77.486 64.8027 76.712C62.7731 75.9381 60.5119 76.9255 59.7523 78.9176C58.9927 80.9096 60.0223 83.1518 62.052 83.9257C64.0817 84.6997 66.3428 83.7122 67.1024 81.7202Z" fill="#69E8A3"/>
</svg>
