<svg viewBox="0 0 664 665" fill="none" xmlns="http://www.w3.org/2000/svg">
<path d="M32.108 468.42L195.451 272.572L347.352 448.298C359.274 440.14 374.669 437.505 389.27 442.253L561.398 144.141C548.199 131.214 543.116 111.196 550.123 92.8725C551.169 90.1323 552.466 87.5595 553.951 85.1331C495.132 32.2334 417.341 0 332.019 0C148.659 0 0 148.659 0 332.019C0 381.509 10.8979 428.406 30.3091 470.596L32.108 468.42Z" fill="#69E8A3"/>
<path d="M612.375 154.311C606.811 156.507 600.871 157.804 594.784 157.804C590.998 157.804 587.191 157.302 583.405 156.382L410.357 456.105C421.694 469.032 425.71 487.627 419.184 504.779C411.904 523.856 393.686 535.59 374.4 535.59C368.731 535.59 363 534.586 357.394 532.453C332.733 523.04 320.308 495.325 329.721 470.663C330.097 469.68 330.536 468.76 330.976 467.839L196.122 311.462L42.7363 495.011C99.7148 595.895 207.857 664.064 331.98 664.064C515.34 664.064 663.999 515.405 663.999 332.045C663.999 266.637 645.027 205.705 612.375 154.311ZM253.017 482.419L206.246 435.648L196.896 482.419L168.846 435.648L65.9754 510.469L196.917 351.477L290.438 463.719L234.317 435.669L253.017 482.419Z" fill="#69E8A3"/>
<path d="M619.758 121.647C624.747 108.564 617.984 93.8371 604.653 88.7537C591.322 83.6703 576.471 90.1552 571.482 103.238C566.493 116.321 573.256 131.048 586.587 136.131C599.918 141.214 614.77 134.73 619.758 121.647Z" fill="#69E8A3"/>
<path d="M397.995 496.532C402.786 483.967 396.292 469.824 383.49 464.943C370.687 460.061 356.425 466.289 351.634 478.854C346.843 491.419 353.337 505.562 366.139 510.443C378.942 515.325 393.204 509.097 397.995 496.532Z" fill="#69E8A3"/>
</svg>
